<svg width="24" height="24" viewBox="0 0 24 24" fill="none" xmlns="http://www.w3.org/2000/svg">
<path d="M18.7599 5.24025C18.5058 4.58168 18.0584 4.01534 17.4767 3.61558C16.8949 3.21582 16.2058 3.00133 15.4999 3.00025C15.1899 3.00025 14.8699 3.04025 14.5699 3.13025C14.2432 2.77403 13.8461 2.48962 13.4037 2.29504C12.9612 2.10047 12.4832 2 11.9999 2C11.5166 2 11.0385 2.10047 10.5961 2.29504C10.1537 2.48962 9.75655 2.77403 9.42989 3.13025C9.11989 3.04025 8.80989 3.00025 8.49989 3.00025C7.02989 3.00025 5.74989 3.91025 5.23989 5.24025C4.69732 5.44976 4.21555 5.79126 3.83818 6.23384C3.46082 6.67641 3.19976 7.2061 3.07864 7.77497C2.95752 8.34383 2.98016 8.93392 3.14451 9.49184C3.30885 10.0498 3.60972 10.5579 4.01989 10.9703C4.01989 11.0503 3.99989 11.1203 4.01989 11.1903L6.01989 21.1903C6.10989 21.6602 6.51989 21.9902 6.99989 21.9902H16.9999C17.4799 21.9902 17.8899 21.6502 17.9799 21.1903L19.9799 11.1903C19.9999 11.1103 19.9799 11.0403 19.9799 10.9703C20.6099 10.3403 20.9999 9.46025 20.9999 8.50025C20.9999 7.03025 20.0899 5.75025 18.7599 5.24025ZM6.22989 7.03025C6.42899 6.9946 6.6124 6.89881 6.75542 6.75579C6.89845 6.61276 6.99424 6.42935 7.02989 6.23025C7.20989 5.26025 8.35989 4.68025 9.26989 5.23025C9.50989 5.37025 9.78989 5.41025 10.0599 5.34025C10.3299 5.26025 10.5499 5.08025 10.6799 4.84025C10.8031 4.59295 10.9929 4.38491 11.2278 4.2395C11.4628 4.09408 11.7336 4.01704 12.0099 4.01704C12.2862 4.01704 12.557 4.09408 12.792 4.2395C13.0269 4.38491 13.2167 4.59295 13.3399 4.84025C13.4699 5.09025 13.6899 5.27025 13.9599 5.34025C14.2299 5.42025 14.5099 5.38025 14.7499 5.23025C15.6599 4.69025 16.8099 5.26025 16.9899 6.23025C17.0599 6.64025 17.3799 6.96025 17.7899 7.03025C18.1559 7.09932 18.4831 7.30227 18.7075 7.59951C18.932 7.89675 19.0377 8.26695 19.004 8.63789C18.9702 9.00884 18.7995 9.35391 18.5251 9.6058C18.2507 9.85769 17.8924 9.99832 17.5199 10.0002H6.49989C6.12742 9.99832 5.76903 9.85769 5.49464 9.6058C5.22025 9.35391 5.04954 9.00884 5.01582 8.63789C4.9821 8.26695 5.08778 7.89675 5.31225 7.59951C5.53672 7.30227 5.86387 7.09932 6.22989 7.03025ZM13.3999 12.0002L12.5999 20.0002H11.4099L10.6099 12.0002H13.3999ZM6.21989 12.0002H8.59989L9.39989 20.0002H7.81989L6.21989 12.0002ZM16.1799 20.0002H14.5999L15.3999 12.0002H17.7799L16.1799 20.0002Z" fill="white"/>
</svg>
